<?xml version="1.0" encoding="UTF-8" standalone="no"?>
<!DOCTYPE svg PUBLIC "-//W3C//DTD SVG 1.1//EN" "http://www.w3.org/Graphics/SVG/1.1/DTD/svg11.dtd">
<svg xmlns="http://www.w3.org/2000/svg" version="1.1" viewBox="0.00 0.00 59.00 58.00">
<g stroke-width="2.00" fill="none" stroke-linecap="butt">
<path stroke="#f187b5" vector-effect="non-scaling-stroke" d="
  M 18.75 37.74
  L 18.76 28.08
  A 2.43 2.42 69.1 0 1 19.56 26.28
  L 26.51 20.02
  Q 27.00 19.58 27.46 20.04
  L 32.30 24.78
  Q 32.97 25.43 33.71 24.87
  L 33.95 24.69
  A 0.49 0.49 0.0 0 0 34.00 23.95
  L 27.24 17.28
  A 0.30 0.30 0.0 0 0 26.83 17.27
  L 17.77 25.50
  A 2.50 2.49 68.9 0 0 16.96 27.34
  L 16.94 39.51
  A 0.32 0.32 0.0 0 0 17.26 39.83
  L 35.98 39.81
  A 0.55 0.54 -0.0 0 0 36.53 39.27
  L 36.59 32.99
  Q 36.60 32.17 35.78 32.03
  L 35.43 31.97
  A 0.56 0.56 0.0 0 0 34.77 32.52
  L 34.71 37.26
  Q 34.70 37.97 33.99 37.97
  L 28.59 37.98
  A 0.65 0.64 -0.0 0 1 27.94 37.34
  L 27.96 31.83
  A 1.17 1.14 -67.1 0 0 27.65 31.04
  Q 25.53 28.77 26.07 37.67
  Q 26.08 37.94 25.81 37.95
  L 18.99 37.97
  Q 18.75 37.98 18.75 37.74"
/>
<path stroke="#f187b5" vector-effect="non-scaling-stroke" d="
  M 50.23 21.22
  A 0.96 0.96 0.0 0 0 49.27 20.26
  A 0.96 0.96 0.0 0 0 48.31 21.22
  A 0.96 0.96 0.0 0 0 49.27 22.18
  A 0.96 0.96 0.0 0 0 50.23 21.22"
/>
<path stroke="#f187b5" vector-effect="non-scaling-stroke" d="
  M 33.01 28.78
  A 0.67 0.67 0.0 0 1 34.04 28.31
  C 36.23 29.78 39.25 32.90 41.45 29.03
  Q 43.56 25.33 46.48 23.25
  Q 47.11 22.80 46.65 22.17
  L 46.48 21.95
  Q 46.23 21.61 45.84 21.79
  C 42.95 23.12 41.32 25.79 39.65 28.38
  A 1.33 1.33 0.0 0 1 37.86 28.81
  Q 36.34 27.93 34.91 26.70
  Q 34.06 25.98 33.05 26.29
  C 31.36 26.82 30.88 29.35 31.06 30.83
  Q 31.12 31.35 31.62 31.51
  Q 31.96 31.62 32.23 31.45
  Q 32.70 31.16 32.77 30.62
  L 33.01 28.78"
/>
</g>
<path fill="#e81d6f" d="
  M 0.00 0.00
  L 59.00 0.00
  L 59.00 58.00
  L 0.00 58.00
  L 0.00 0.00
  Z
  M 18.75 37.74
  L 18.76 28.08
  A 2.43 2.42 69.1 0 1 19.56 26.28
  L 26.51 20.02
  Q 27.00 19.58 27.46 20.04
  L 32.30 24.78
  Q 32.97 25.43 33.71 24.87
  L 33.95 24.69
  A 0.49 0.49 0.0 0 0 34.00 23.95
  L 27.24 17.28
  A 0.30 0.30 0.0 0 0 26.83 17.27
  L 17.77 25.50
  A 2.50 2.49 68.9 0 0 16.96 27.34
  L 16.94 39.51
  A 0.32 0.32 0.0 0 0 17.26 39.83
  L 35.98 39.81
  A 0.55 0.54 -0.0 0 0 36.53 39.27
  L 36.59 32.99
  Q 36.60 32.17 35.78 32.03
  L 35.43 31.97
  A 0.56 0.56 0.0 0 0 34.77 32.52
  L 34.71 37.26
  Q 34.70 37.97 33.99 37.97
  L 28.59 37.98
  A 0.65 0.64 -0.0 0 1 27.94 37.34
  L 27.96 31.83
  A 1.17 1.14 -67.1 0 0 27.65 31.04
  Q 25.53 28.77 26.07 37.67
  Q 26.08 37.94 25.81 37.95
  L 18.99 37.97
  Q 18.75 37.98 18.75 37.74
  Z
  M 50.23 21.22
  A 0.96 0.96 0.0 0 0 49.27 20.26
  A 0.96 0.96 0.0 0 0 48.31 21.22
  A 0.96 0.96 0.0 0 0 49.27 22.18
  A 0.96 0.96 0.0 0 0 50.23 21.22
  Z
  M 33.01 28.78
  A 0.67 0.67 0.0 0 1 34.04 28.31
  C 36.23 29.78 39.25 32.90 41.45 29.03
  Q 43.56 25.33 46.48 23.25
  Q 47.11 22.80 46.65 22.17
  L 46.48 21.95
  Q 46.23 21.61 45.84 21.79
  C 42.95 23.12 41.32 25.79 39.65 28.38
  A 1.33 1.33 0.0 0 1 37.86 28.81
  Q 36.34 27.93 34.91 26.70
  Q 34.06 25.98 33.05 26.29
  C 31.36 26.82 30.88 29.35 31.06 30.83
  Q 31.12 31.35 31.62 31.51
  Q 31.96 31.62 32.23 31.45
  Q 32.70 31.16 32.77 30.62
  L 33.01 28.78
  Z"
/>
<path fill="#faf1fa" d="
  M 18.75 37.74
  Q 18.75 37.98 18.99 37.97
  L 25.81 37.95
  Q 26.08 37.94 26.07 37.67
  Q 25.53 28.77 27.65 31.04
  A 1.17 1.14 -67.1 0 1 27.96 31.83
  L 27.94 37.34
  A 0.65 0.64 -0.0 0 0 28.59 37.98
  L 33.99 37.97
  Q 34.70 37.97 34.71 37.26
  L 34.77 32.52
  A 0.56 0.56 0.0 0 1 35.43 31.97
  L 35.78 32.03
  Q 36.60 32.17 36.59 32.99
  L 36.53 39.27
  A 0.55 0.54 0.0 0 1 35.98 39.81
  L 17.26 39.83
  A 0.32 0.32 0.0 0 1 16.94 39.51
  L 16.96 27.34
  A 2.50 2.49 68.9 0 1 17.77 25.50
  L 26.83 17.27
  A 0.30 0.30 0.0 0 1 27.24 17.28
  L 34.00 23.95
  A 0.49 0.49 0.0 0 1 33.95 24.69
  L 33.71 24.87
  Q 32.97 25.43 32.30 24.78
  L 27.46 20.04
  Q 27.00 19.58 26.51 20.02
  L 19.56 26.28
  A 2.43 2.42 69.1 0 0 18.76 28.08
  L 18.75 37.74
  Z"
/>
<circle fill="#faf1fa" cx="49.27" cy="21.22" r="0.96"/>
<path fill="#faf1fa" d="
  M 33.01 28.78
  L 32.77 30.62
  Q 32.70 31.16 32.23 31.45
  Q 31.96 31.62 31.62 31.51
  Q 31.12 31.35 31.06 30.83
  C 30.88 29.35 31.36 26.82 33.05 26.29
  Q 34.06 25.98 34.91 26.70
  Q 36.34 27.93 37.86 28.81
  A 1.33 1.33 0.0 0 0 39.65 28.38
  C 41.32 25.79 42.95 23.12 45.84 21.79
  Q 46.23 21.61 46.48 21.95
  L 46.65 22.17
  Q 47.11 22.80 46.48 23.25
  Q 43.56 25.33 41.45 29.03
  C 39.25 32.90 36.23 29.78 34.04 28.31
  A 0.67 0.67 0.0 0 0 33.01 28.78
  Z"
/>
</svg>
