<svg xmlns="http://www.w3.org/2000/svg" xmlns:xlink="http://www.w3.org/1999/xlink" width="500" zoomAndPan="magnify" viewBox="0 0 375 374.999991" height="500" preserveAspectRatio="xMidYMid meet" version="1.0"><defs><g/><clipPath id="52542c3a9e"><path d="M 93.886719 76.867188 L 281.386719 76.867188 L 281.386719 249.367188 L 93.886719 249.367188 Z M 93.886719 76.867188 " clip-rule="nonzero"/></clipPath></defs><rect x="-37.5" width="450" fill="#ffffff" y="-37.499999" height="449.999989" fill-opacity="1"/><rect x="-37.5" width="450" fill="#ffffff" y="-37.499999" height="449.999989" fill-opacity="1"/><g clip-path="url(#52542c3a9e)"><path fill="#000000" d="M 254.683594 152.738281 C 254.683594 152.738281 256.066406 122.648438 251.050781 132.160156 C 246.035156 141.671875 241.367188 143.054688 241.367188 143.054688 C 241.367188 143.054688 232.203125 136.136719 224.9375 139.597656 C 218.019531 142.890625 213.765625 143.203125 206.796875 141.429688 C 206.152344 141.265625 205.46875 141.527344 205.089844 142.078125 C 203.199219 144.8125 197.878906 152.933594 198.304688 157.0625 C 198.40625 158.058594 199.429688 159.699219 200.863281 161.832031 L 192.988281 174.832031 L 206.347656 155.375 L 201.734375 163.128906 C 202.164062 163.761719 202.621094 164.441406 203.085938 165.144531 L 195.402344 179.699219 L 207.589844 159.496094 L 204 166.539062 C 204.492188 167.300781 204.984375 168.105469 205.480469 168.929688 L 199.636719 184.175781 L 209.328125 162.652344 L 206.453125 170.59375 C 211.558594 179.683594 215.507812 191.921875 205.742188 204.101562 C 205.742188 204.101562 220.785156 195.28125 225.109375 184.734375 C 225.109375 184.734375 221.132812 199.953125 191.386719 213.960938 C 174.800781 221.769531 151.222656 230.664062 136.726562 249.234375 C 110.949219 232.5625 93.882812 203.566406 93.882812 170.578125 C 93.882812 118.878906 135.796875 76.96875 187.496094 76.96875 C 239.195312 76.96875 281.105469 118.878906 281.105469 170.578125 C 281.105469 199.277344 268.1875 224.953125 247.855469 242.125 C 257.851562 225.707031 265.910156 197.65625 254.683594 152.738281 " fill-opacity="1" fill-rule="nonzero"/></g><g fill="#000000" fill-opacity="1"><g transform="translate(93.989747, 282.708954)"><g><path d="M 8.472656 -25.195312 L 0.316406 -25.195312 C 0.15625 -25.195312 0 -25.039062 0 -24.914062 L 0 -20.566406 L 8.472656 -20.566406 C 9.039062 -20.566406 12.1875 -20.410156 12.1875 -17.636719 C 12.1875 -14.867188 9.101562 -14.800781 8.472656 -14.800781 L 0 -14.800781 L 0 -0.285156 C 0 -0.15625 0.15625 0 0.316406 0 L 4.410156 0 C 4.628906 0 4.722656 -0.15625 4.722656 -0.285156 L 4.722656 -10.140625 L 8.472656 -10.140625 C 9.070312 -10.140625 16.976562 -10.234375 16.976562 -17.636719 C 16.976562 -25.039062 9.480469 -25.195312 8.472656 -25.195312 Z M 8.472656 -25.195312 "/></g></g></g><g fill="#000000" fill-opacity="1"><g transform="translate(111.814988, 282.708954)"><g><path d="M 18.582031 -25.195312 L 14.488281 -25.195312 C 14.265625 -25.195312 14.140625 -25.039062 14.140625 -24.914062 L 14.140625 -8.410156 C 14.140625 -5.859375 11.808594 -4.628906 9.449219 -4.628906 C 7.117188 -4.628906 5.039062 -5.953125 4.753906 -8.441406 L 4.753906 -20.628906 L 0 -20.628906 L 0 -8.410156 C 0 -3.210938 4.25 0 9.449219 0 C 14.800781 0 18.898438 -3.085938 18.898438 -8.410156 L 18.898438 -24.914062 C 18.898438 -25.039062 18.738281 -25.195312 18.582031 -25.195312 Z M 18.582031 -25.195312 "/></g></g></g><g fill="#000000" fill-opacity="1"><g transform="translate(131.655802, 282.708954)"><g><path d="M 17.195312 -0.410156 C 15.621094 -3.90625 13.921875 -7.371094 12.347656 -10.929688 C 14.867188 -11.84375 16.976562 -13.859375 16.976562 -17.699219 C 16.976562 -25.132812 9.890625 -25.195312 8.472656 -25.195312 L 0.316406 -25.195312 C 0.15625 -25.195312 0 -25.039062 0 -24.914062 L 0 -20.628906 L 8.472656 -20.628906 C 9.226562 -20.628906 12.1875 -20.472656 12.1875 -17.699219 C 12.1875 -14.929688 9.511719 -14.800781 8.472656 -14.800781 L 0 -14.800781 L 0 -0.285156 C 0 -0.15625 0.15625 0 0.316406 0 L 4.441406 0 C 4.628906 0 4.789062 -0.15625 4.789062 -0.285156 L 4.789062 -10.171875 L 7.496094 -10.171875 L 12.09375 -0.1875 C 12.125 -0.09375 12.3125 0 12.410156 0 L 16.914062 0 C 17.164062 0 17.289062 -0.1875 17.195312 -0.410156 Z M 17.195312 -0.410156 "/></g></g></g><g fill="#000000" fill-opacity="1"><g transform="translate(149.764473, 282.708954)"><g><path d="M 17.195312 -0.410156 C 15.621094 -3.90625 13.921875 -7.371094 12.347656 -10.929688 C 14.867188 -11.84375 16.976562 -13.859375 16.976562 -17.699219 C 16.976562 -25.132812 9.890625 -25.195312 8.472656 -25.195312 L 0.316406 -25.195312 C 0.15625 -25.195312 0 -25.039062 0 -24.914062 L 0 -20.628906 L 8.472656 -20.628906 C 9.226562 -20.628906 12.1875 -20.472656 12.1875 -17.699219 C 12.1875 -14.929688 9.511719 -14.800781 8.472656 -14.800781 L 0 -14.800781 L 0 -0.285156 C 0 -0.15625 0.15625 0 0.316406 0 L 4.441406 0 C 4.628906 0 4.789062 -0.15625 4.789062 -0.285156 L 4.789062 -10.171875 L 7.496094 -10.171875 L 12.09375 -0.1875 C 12.125 -0.09375 12.3125 0 12.410156 0 L 16.914062 0 C 17.164062 0 17.289062 -0.1875 17.195312 -0.410156 Z M 17.195312 -0.410156 "/></g></g></g><g fill="#000000" fill-opacity="1"><g transform="translate(167.873143, 282.708954)"><g><path d="M 14.707031 -14.929688 L 4.820312 -14.929688 L 4.820312 -20.628906 L 11.96875 -20.628906 L 11.96875 -25.195312 L 0.347656 -25.195312 C 0.15625 -25.195312 0 -25.039062 0 -24.914062 L 0 -0.285156 C 0 -0.15625 0.15625 0 0.347656 0 L 4.820312 0 L 4.820312 -10.363281 L 14.707031 -10.363281 C 14.898438 -10.363281 15.054688 -10.519531 15.054688 -10.644531 L 15.054688 -14.644531 C 15.054688 -14.800781 14.898438 -14.929688 14.707031 -14.929688 Z M 14.707031 -14.929688 "/></g></g></g><g fill="#000000" fill-opacity="1"><g transform="translate(183.682809, 282.708954)"><g><path d="M 11.96875 -4.691406 L 4.820312 -4.691406 L 4.820312 -10.363281 L 14.707031 -10.363281 C 14.898438 -10.363281 15.054688 -10.519531 15.054688 -10.644531 L 15.054688 -14.644531 C 15.054688 -14.800781 14.898438 -14.929688 14.707031 -14.929688 L 4.820312 -14.929688 L 4.820312 -20.628906 L 11.96875 -20.628906 L 11.96875 -25.195312 L 0.347656 -25.195312 C 0.15625 -25.195312 0 -25.039062 0 -24.914062 L 0 -0.285156 C 0 -0.15625 0.15625 0 0.347656 0 L 11.96875 0 Z M 11.96875 -4.691406 "/></g></g></g><g fill="#000000" fill-opacity="1"><g transform="translate(199.492475, 282.708954)"><g><path d="M 14.394531 -4.628906 C 11.339844 -4.503906 4.851562 -4.820312 4.851562 -12.597656 C 4.851562 -18.582031 8.914062 -20.882812 14.394531 -20.597656 L 14.394531 -15.023438 L 19.210938 -15.023438 L 19.210938 -24.914062 C 19.210938 -25.039062 19.085938 -25.195312 18.867188 -25.195312 L 14.769531 -25.195312 C 8.597656 -25.195312 0 -23.777344 0 -12.597656 C 0 -1.828125 8.503906 0 14.769531 0 L 18.867188 0 C 19.085938 0 19.210938 -0.15625 19.210938 -0.285156 L 19.210938 -4.628906 Z M 14.394531 -4.628906 "/></g></g></g><g fill="#000000" fill-opacity="1"><g transform="translate(219.679715, 282.708954)"><g><path d="M 5.195312 -16.0625 L 5.195312 -0.285156 C 5.195312 -0.15625 5.324219 0 5.542969 0 L 9.605469 0 C 9.828125 0 9.984375 -0.15625 9.984375 -0.285156 L 9.984375 -16.0625 Z M 0.347656 -20.882812 L 14.800781 -20.882812 C 15.023438 -20.882812 15.148438 -21.007812 15.148438 -21.164062 L 15.148438 -24.914062 C 15.148438 -25.039062 15.023438 -25.195312 14.800781 -25.195312 L 0.347656 -25.195312 C 0.15625 -25.195312 0 -25.039062 0 -24.914062 L 0 -21.164062 C 0 -21.007812 0.15625 -20.882812 0.347656 -20.882812 Z M 0.347656 -20.882812 "/></g></g></g><g fill="#000000" fill-opacity="1"><g transform="translate(235.583858, 282.708954)"><g><path d="M 8.472656 -25.195312 L 0.316406 -25.195312 C 0.15625 -25.195312 0 -25.039062 0 -24.914062 L 0 -20.566406 L 8.472656 -20.566406 C 9.039062 -20.566406 12.1875 -20.410156 12.1875 -17.636719 C 12.1875 -14.867188 9.101562 -14.800781 8.472656 -14.800781 L 0 -14.800781 L 0 -0.285156 C 0 -0.15625 0.15625 0 0.316406 0 L 4.410156 0 C 4.628906 0 4.722656 -0.15625 4.722656 -0.285156 L 4.722656 -10.140625 L 8.472656 -10.140625 C 9.070312 -10.140625 16.976562 -10.234375 16.976562 -17.636719 C 16.976562 -25.039062 9.480469 -25.195312 8.472656 -25.195312 Z M 8.472656 -25.195312 "/></g></g></g><g fill="#000000" fill-opacity="1"><g transform="translate(253.409098, 282.708954)"><g><path d="M 19.777344 -0.378906 L 10.203125 -25.007812 C 10.109375 -25.257812 9.667969 -25.257812 9.574219 -25.007812 L 0.03125 -0.378906 C -0.0625 -0.1875 0.0625 0 0.347656 0 L 4.660156 0 C 4.789062 0 4.945312 -0.0625 4.976562 -0.1875 L 9.890625 -14.234375 L 14.867188 -0.1875 C 14.898438 -0.0625 15.054688 0 15.148438 0 L 19.496094 0 C 19.714844 0 19.875 -0.1875 19.777344 -0.378906 Z M 19.777344 -0.378906 "/></g></g></g><g fill="#000000" fill-opacity="1"><g transform="translate(274.194713, 282.708954)"><g><path d="M 13.605469 -4.691406 L 0 -4.691406 L 0 -0.285156 C 0 -0.15625 0.15625 0 0.347656 0 L 13.605469 0 C 13.824219 0 13.953125 -0.15625 13.953125 -0.285156 L 13.953125 -4.378906 C 13.953125 -4.535156 13.824219 -4.691406 13.605469 -4.691406 Z M 4.820312 -9.511719 L 4.820312 -24.914062 C 4.820312 -25.039062 4.691406 -25.195312 4.503906 -25.195312 L 0.347656 -25.195312 C 0.15625 -25.195312 0 -25.039062 0 -24.914062 L 0 -9.511719 Z M 4.820312 -9.511719 "/></g></g></g></svg>