<svg xmlns="http://www.w3.org/2000/svg" xmlns:xlink="http://www.w3.org/1999/xlink" width="500" zoomAndPan="magnify" viewBox="0 0 375 374.999991" height="500" preserveAspectRatio="xMidYMid meet" version="1.0"><defs><g/><clipPath id="5a0a94fdc4"><path d="M 93.886719 76.867188 L 281.386719 76.867188 L 281.386719 249.367188 L 93.886719 249.367188 Z M 93.886719 76.867188 " clip-rule="nonzero"/></clipPath></defs><rect x="-37.5" width="450" fill="#ffffff" y="-37.499999" height="449.999989" fill-opacity="1"/><rect x="-37.5" width="450" fill="#ffffff" y="-37.499999" height="449.999989" fill-opacity="1"/><g clip-path="url(#5a0a94fdc4)"><path fill="#000000" d="M 254.683594 152.738281 C 254.683594 152.738281 256.066406 122.648438 251.050781 132.160156 C 246.035156 141.671875 241.367188 143.054688 241.367188 143.054688 C 241.367188 143.054688 232.203125 136.136719 224.9375 139.597656 C 218.019531 142.890625 213.765625 143.203125 206.796875 141.429688 C 206.152344 141.265625 205.46875 141.527344 205.089844 142.078125 C 203.199219 144.8125 197.878906 152.933594 198.304688 157.0625 C 198.40625 158.058594 199.429688 159.699219 200.863281 161.832031 L 192.988281 174.832031 L 206.347656 155.375 L 201.734375 163.128906 C 202.164062 163.761719 202.621094 164.441406 203.085938 165.144531 L 195.402344 179.699219 L 207.589844 159.496094 L 204 166.539062 C 204.492188 167.300781 204.984375 168.105469 205.480469 168.929688 L 199.636719 184.175781 L 209.328125 162.652344 L 206.453125 170.59375 C 211.558594 179.683594 215.507812 191.921875 205.742188 204.101562 C 205.742188 204.101562 220.785156 195.28125 225.109375 184.734375 C 225.109375 184.734375 221.132812 199.953125 191.386719 213.960938 C 174.800781 221.769531 151.222656 230.664062 136.726562 249.234375 C 110.949219 232.5625 93.882812 203.566406 93.882812 170.578125 C 93.882812 118.878906 135.796875 76.96875 187.496094 76.96875 C 239.195312 76.96875 281.105469 118.878906 281.105469 170.578125 C 281.105469 199.277344 268.1875 224.953125 247.855469 242.125 C 257.851562 225.707031 265.910156 197.65625 254.683594 152.738281 " fill-opacity="1" fill-rule="nonzero"/></g><g fill="#000000" fill-opacity="1"><g transform="translate(93.989747, 282.708983)"><g><path d="M 8.472656 -25.195312 L 0.316406 -25.195312 C 0.15625 -25.195312 0 -25.039062 0 -24.914062 L 0 -20.566406 L 8.472656 -20.566406 C 9.039062 -20.566406 12.1875 -20.410156 12.1875 -17.636719 C 12.1875 -14.867188 9.101562 -14.800781 8.472656 -14.800781 L 0 -14.800781 L 0 -0.285156 C 0 -0.15625 0.15625 0 0.316406 0 L 4.410156 0 C 4.628906 0 4.722656 -0.15625 4.722656 -0.285156 L 4.722656 -10.140625 L 8.472656 -10.140625 C 9.070312 -10.140625 16.976562 -10.234375 16.976562 -17.636719 C 16.976562 -25.039062 9.480469 -25.195312 8.472656 -25.195312 Z M 8.472656 -25.195312 "/></g></g></g><g fill="#000000" fill-opacity="1"><g transform="translate(111.814988, 282.708983)"><g><path d="M 18.582031 -25.195312 L 14.488281 -25.195312 C 14.265625 -25.195312 14.140625 -25.039062 14.140625 -24.914062 L 14.140625 -8.410156 C 14.140625 -5.859375 11.808594 -4.628906 9.449219 -4.628906 C 7.117188 -4.628906 5.039062 -5.953125 4.753906 -8.441406 L 4.753906 -20.628906 L 0 -20.628906 L 0 -8.410156 C 0 -3.210938 4.25 0 9.449219 0 C 14.800781 0 18.898438 -3.085938 18.898438 -8.410156 L 18.898438 -24.914062 C 18.898438 -25.039062 18.738281 -25.195312 18.582031 -25.195312 Z M 18.582031 -25.195312 "/></g></g></g><g fill="#000000" fill-opacity="1"><g transform="translate(131.655802, 282.708983)"><g><path d="M 17.195312 -0.410156 C 15.621094 -3.90625 13.921875 -7.371094 12.347656 -10.929688 C 14.867188 -11.84375 16.976562 -13.859375 16.976562 -17.699219 C 16.976562 -25.132812 9.890625 -25.195312 8.472656 -25.195312 L 0.316406 -25.195312 C 0.15625 -25.195312 0 -25.039062 0 -24.914062 L 0 -20.628906 L 8.472656 -20.628906 C 9.226562 -20.628906 12.1875 -20.472656 12.1875 -17.699219 C 12.1875 -14.929688 9.511719 -14.800781 8.472656 -14.800781 L 0 -14.800781 L 0 -0.285156 C 0 -0.15625 0.15625 0 0.316406 0 L 4.441406 0 C 4.628906 0 4.789062 -0.15625 4.789062 -0.285156 L 4.789062 -10.171875 L 7.496094 -10.171875 L 12.09375 -0.1875 C 12.125 -0.09375 12.3125 0 12.410156 0 L 16.914062 0 C 17.164062 0 17.289062 -0.1875 17.195312 -0.410156 Z M 17.195312 -0.410156 "/></g></g></g><g fill="#000000" fill-opacity="1"><g transform="translate(149.764473, 282.708983)"><g><path d="M 17.195312 -0.410156 C 15.621094 -3.90625 13.921875 -7.371094 12.347656 -10.929688 C 14.867188 -11.84375 16.976562 -13.859375 16.976562 -17.699219 C 16.976562 -25.132812 9.890625 -25.195312 8.472656 -25.195312 L 0.316406 -25.195312 C 0.15625 -25.195312 0 -25.039062 0 -24.914062 L 0 -20.628906 L 8.472656 -20.628906 C 9.226562 -20.628906 12.1875 -20.472656 12.1875 -17.699219 C 12.1875 -14.929688 9.511719 -14.800781 8.472656 -14.800781 L 0 -14.800781 L 0 -0.285156 C 0 -0.15625 0.15625 0 0.316406 0 L 4.441406 0 C 4.628906 0 4.789062 -0.15625 4.789062 -0.285156 L 4.789062 -10.171875 L 7.496094 -10.171875 L 12.09375 -0.1875 C 12.125 -0.09375 12.3125 0 12.410156 0 L 16.914062 0 C 17.164062 0 17.289062 -0.1875 17.195312 -0.410156 Z M 17.195312 -0.410156 "/></g></g></g><g fill="#000000" fill-opacity="1"><g transform="translate(167.873143, 282.708983)"><g><path d="M 14.707031 -14.929688 L 4.820312 -14.929688 L 4.820312 -20.628906 L 11.96875 -20.628906 L 11.96875 -25.195312 L 0.347656 -25.195312 C 0.15625 -25.195312 0 -25.039062 0 -24.914062 L 0 -0.285156 C 0 -0.15625 0.15625 0 0.347656 0 L 4.820312 0 L 4.820312 -10.363281 L 14.707031 -10.363281 C 14.898438 -10.363281 15.054688 -10.519531 15.054688 -10.644531 L 15.054688 -14.644531 C 15.054688 -14.800781 14.898438 -14.929688 14.707031 -14.929688 Z M 14.707031 -14.929688 "/></g></g></g><g fill="#000000" fill-opacity="1"><g transform="translate(183.682809, 282.708983)"><g><path d="M 11.96875 -4.691406 L 4.820312 -4.691406 L 4.820312 -10.363281 L 14.707031 -10.363281 C 14.898438 -10.363281 15.054688 -10.519531 15.054688 -10.644531 L 15.054688 -14.644531 C 15.054688 -14.800781 14.898438 -14.929688 14.707031 -14.929688 L 4.820312 -14.929688 L 4.820312 -20.628906 L 11.96875 -20.628906 L 11.96875 -25.195312 L 0.347656 -25.195312 C 0.15625 -25.195312 0 -25.039062 0 -24.914062 L 0 -0.285156 C 0 -0.15625 0.15625 0 0.347656 0 L 11.96875 0 Z M 11.96875 -4.691406 "/></g></g></g><g fill="#000000" fill-opacity="1"><g transform="translate(199.492475, 282.708983)"><g><path d="M 14.394531 -4.628906 C 11.339844 -4.503906 4.851562 -4.820312 4.851562 -12.597656 C 4.851562 -18.582031 8.914062 -20.882812 14.394531 -20.597656 L 14.394531 -15.023438 L 19.210938 -15.023438 L 19.210938 -24.914062 C 19.210938 -25.039062 19.085938 -25.195312 18.867188 -25.195312 L 14.769531 -25.195312 C 8.597656 -25.195312 0 -23.777344 0 -12.597656 C 0 -1.828125 8.503906 0 14.769531 0 L 18.867188 0 C 19.085938 0 19.210938 -0.15625 19.210938 -0.285156 L 19.210938 -4.628906 Z M 14.394531 -4.628906 "/></g></g></g><g fill="#000000" fill-opacity="1"><g transform="translate(219.679715, 282.708983)"><g><path d="M 5.195312 -16.0625 L 5.195312 -0.285156 C 5.195312 -0.15625 5.324219 0 5.542969 0 L 9.605469 0 C 9.828125 0 9.984375 -0.15625 9.984375 -0.285156 L 9.984375 -16.0625 Z M 0.347656 -20.882812 L 14.800781 -20.882812 C 15.023438 -20.882812 15.148438 -21.007812 15.148438 -21.164062 L 15.148438 -24.914062 C 15.148438 -25.039062 15.023438 -25.195312 14.800781 -25.195312 L 0.347656 -25.195312 C 0.15625 -25.195312 0 -25.039062 0 -24.914062 L 0 -21.164062 C 0 -21.007812 0.15625 -20.882812 0.347656 -20.882812 Z M 0.347656 -20.882812 "/></g></g></g><g fill="#000000" fill-opacity="1"><g transform="translate(235.583858, 282.708983)"><g><path d="M 8.472656 -25.195312 L 0.316406 -25.195312 C 0.15625 -25.195312 0 -25.039062 0 -24.914062 L 0 -20.566406 L 8.472656 -20.566406 C 9.039062 -20.566406 12.1875 -20.410156 12.1875 -17.636719 C 12.1875 -14.867188 9.101562 -14.800781 8.472656 -14.800781 L 0 -14.800781 L 0 -0.285156 C 0 -0.15625 0.15625 0 0.316406 0 L 4.410156 0 C 4.628906 0 4.722656 -0.15625 4.722656 -0.285156 L 4.722656 -10.140625 L 8.472656 -10.140625 C 9.070312 -10.140625 16.976562 -10.234375 16.976562 -17.636719 C 16.976562 -25.039062 9.480469 -25.195312 8.472656 -25.195312 Z M 8.472656 -25.195312 "/></g></g></g><g fill="#000000" fill-opacity="1"><g transform="translate(253.409098, 282.708983)"><g><path d="M 19.777344 -0.378906 L 10.203125 -25.007812 C 10.109375 -25.257812 9.667969 -25.257812 9.574219 -25.007812 L 0.03125 -0.378906 C -0.0625 -0.1875 0.0625 0 0.347656 0 L 4.660156 0 C 4.789062 0 4.945312 -0.0625 4.976562 -0.1875 L 9.890625 -14.234375 L 14.867188 -0.1875 C 14.898438 -0.0625 15.054688 0 15.148438 0 L 19.496094 0 C 19.714844 0 19.875 -0.1875 19.777344 -0.378906 Z M 19.777344 -0.378906 "/></g></g></g><g fill="#000000" fill-opacity="1"><g transform="translate(274.194713, 282.708983)"><g><path d="M 13.605469 -4.691406 L 0 -4.691406 L 0 -0.285156 C 0 -0.15625 0.15625 0 0.347656 0 L 13.605469 0 C 13.824219 0 13.953125 -0.15625 13.953125 -0.285156 L 13.953125 -4.378906 C 13.953125 -4.535156 13.824219 -4.691406 13.605469 -4.691406 Z M 4.820312 -9.511719 L 4.820312 -24.914062 C 4.820312 -25.039062 4.691406 -25.195312 4.503906 -25.195312 L 0.347656 -25.195312 C 0.15625 -25.195312 0 -25.039062 0 -24.914062 L 0 -9.511719 Z M 4.820312 -9.511719 "/></g></g></g><g fill="#000000" fill-opacity="1"><g transform="translate(127.047423, 303.026259)"><g><path d="M 4.890625 0.171875 C 4.085938 0.171875 3.34375 -0.0234375 2.65625 -0.421875 C 1.976562 -0.816406 1.4375 -1.359375 1.03125 -2.046875 C 0.632812 -2.734375 0.4375 -3.5 0.4375 -4.34375 C 0.4375 -5.175781 0.632812 -5.9375 1.03125 -6.625 C 1.4375 -7.320312 1.976562 -7.863281 2.65625 -8.25 C 3.34375 -8.644531 4.085938 -8.84375 4.890625 -8.84375 C 5.867188 -8.84375 6.738281 -8.554688 7.5 -7.984375 C 8.269531 -7.421875 8.796875 -6.617188 9.078125 -5.578125 L 7.703125 -5.578125 C 7.460938 -6.222656 7.085938 -6.722656 6.578125 -7.078125 C 6.078125 -7.429688 5.515625 -7.609375 4.890625 -7.609375 C 4.328125 -7.609375 3.8125 -7.460938 3.34375 -7.171875 C 2.875 -6.890625 2.503906 -6.5 2.234375 -6 C 1.960938 -5.5 1.828125 -4.945312 1.828125 -4.34375 C 1.828125 -3.726562 1.960938 -3.171875 2.234375 -2.671875 C 2.503906 -2.171875 2.875 -1.773438 3.34375 -1.484375 C 3.8125 -1.203125 4.328125 -1.0625 4.890625 -1.0625 C 5.515625 -1.0625 6.078125 -1.238281 6.578125 -1.59375 C 7.085938 -1.945312 7.460938 -2.445312 7.703125 -3.09375 L 9.078125 -3.09375 C 8.796875 -2.0625 8.269531 -1.257812 7.5 -0.6875 C 6.738281 -0.113281 5.867188 0.171875 4.890625 0.171875 Z M 4.890625 0.171875 "/></g></g></g><g fill="#000000" fill-opacity="1"><g transform="translate(136.481445, 303.026259)"><g><path d="M 8.078125 -8.671875 L 9.40625 -8.671875 L 9.40625 0 L 8.078125 0 L 8.078125 -1.328125 C 7.710938 -0.867188 7.25 -0.503906 6.6875 -0.234375 C 6.132812 0.0351562 5.535156 0.171875 4.890625 0.171875 C 4.097656 0.171875 3.359375 -0.0234375 2.671875 -0.421875 C 1.984375 -0.816406 1.4375 -1.359375 1.03125 -2.046875 C 0.632812 -2.734375 0.4375 -3.5 0.4375 -4.34375 C 0.4375 -5.175781 0.632812 -5.9375 1.03125 -6.625 C 1.4375 -7.320312 1.984375 -7.863281 2.671875 -8.25 C 3.359375 -8.644531 4.097656 -8.84375 4.890625 -8.84375 C 5.535156 -8.84375 6.132812 -8.707031 6.6875 -8.4375 C 7.25 -8.164062 7.710938 -7.800781 8.078125 -7.34375 Z M 5 -1.0625 C 5.570312 -1.0625 6.097656 -1.203125 6.578125 -1.484375 C 7.066406 -1.773438 7.453125 -2.171875 7.734375 -2.671875 C 8.015625 -3.171875 8.15625 -3.726562 8.15625 -4.34375 C 8.15625 -4.945312 8.015625 -5.5 7.734375 -6 C 7.453125 -6.5 7.066406 -6.890625 6.578125 -7.171875 C 6.097656 -7.460938 5.570312 -7.609375 5 -7.609375 C 4.414062 -7.609375 3.878906 -7.460938 3.390625 -7.171875 C 2.910156 -6.890625 2.53125 -6.5 2.25 -6 C 1.96875 -5.5 1.828125 -4.945312 1.828125 -4.34375 C 1.828125 -3.726562 1.96875 -3.171875 2.25 -2.671875 C 2.53125 -2.171875 2.910156 -1.773438 3.390625 -1.484375 C 3.878906 -1.203125 4.414062 -1.0625 5 -1.0625 Z M 5 -1.0625 "/></g></g></g><g fill="#000000" fill-opacity="1"><g transform="translate(146.942067, 303.026259)"><g><path d="M 4.875 -8.328125 L 2.65625 -8.328125 L 2.65625 -2.65625 C 2.65625 -2.21875 2.78125 -1.867188 3.03125 -1.609375 C 3.289062 -1.359375 3.640625 -1.234375 4.078125 -1.234375 L 4.875 -1.234375 L 4.875 0 L 3.984375 0 C 3.191406 0 2.550781 -0.238281 2.0625 -0.71875 C 1.570312 -1.195312 1.328125 -1.8125 1.328125 -2.5625 L 1.328125 -8.328125 L -0.09375 -8.328125 L -0.09375 -8.671875 L 1.328125 -8.671875 L 1.328125 -10.96875 L 2.65625 -10.96875 L 2.65625 -8.671875 L 4.875 -8.671875 Z M 4.875 -8.328125 "/></g></g></g><g fill="#000000" fill-opacity="1"><g transform="translate(151.89803, 303.026259)"><g/></g></g><g fill="#000000" fill-opacity="1"><g transform="translate(156.588489, 303.026259)"><g><path d="M 8.078125 -8.671875 L 9.40625 -8.671875 L 9.40625 0 L 8.078125 0 L 8.078125 -1.328125 C 7.710938 -0.867188 7.25 -0.503906 6.6875 -0.234375 C 6.132812 0.0351562 5.535156 0.171875 4.890625 0.171875 C 4.097656 0.171875 3.359375 -0.0234375 2.671875 -0.421875 C 1.984375 -0.816406 1.4375 -1.359375 1.03125 -2.046875 C 0.632812 -2.734375 0.4375 -3.5 0.4375 -4.34375 C 0.4375 -5.175781 0.632812 -5.9375 1.03125 -6.625 C 1.4375 -7.320312 1.984375 -7.863281 2.671875 -8.25 C 3.359375 -8.644531 4.097656 -8.84375 4.890625 -8.84375 C 5.535156 -8.84375 6.132812 -8.707031 6.6875 -8.4375 C 7.25 -8.164062 7.710938 -7.800781 8.078125 -7.34375 Z M 5 -1.0625 C 5.570312 -1.0625 6.097656 -1.203125 6.578125 -1.484375 C 7.066406 -1.773438 7.453125 -2.171875 7.734375 -2.671875 C 8.015625 -3.171875 8.15625 -3.726562 8.15625 -4.34375 C 8.15625 -4.945312 8.015625 -5.5 7.734375 -6 C 7.453125 -6.5 7.066406 -6.890625 6.578125 -7.171875 C 6.097656 -7.460938 5.570312 -7.609375 5 -7.609375 C 4.414062 -7.609375 3.878906 -7.460938 3.390625 -7.171875 C 2.910156 -6.890625 2.53125 -6.5 2.25 -6 C 1.96875 -5.5 1.828125 -4.945312 1.828125 -4.34375 C 1.828125 -3.726562 1.96875 -3.171875 2.25 -2.671875 C 2.53125 -2.171875 2.910156 -1.773438 3.390625 -1.484375 C 3.878906 -1.203125 4.414062 -1.0625 5 -1.0625 Z M 5 -1.0625 "/></g></g></g><g fill="#000000" fill-opacity="1"><g transform="translate(167.049111, 303.026259)"><g><path d="M 4.890625 0.171875 C 4.085938 0.171875 3.34375 -0.0234375 2.65625 -0.421875 C 1.976562 -0.816406 1.4375 -1.359375 1.03125 -2.046875 C 0.632812 -2.734375 0.4375 -3.5 0.4375 -4.34375 C 0.4375 -5.175781 0.632812 -5.9375 1.03125 -6.625 C 1.4375 -7.320312 1.976562 -7.863281 2.65625 -8.25 C 3.34375 -8.644531 4.085938 -8.84375 4.890625 -8.84375 C 5.867188 -8.84375 6.738281 -8.554688 7.5 -7.984375 C 8.269531 -7.421875 8.796875 -6.617188 9.078125 -5.578125 L 7.703125 -5.578125 C 7.460938 -6.222656 7.085938 -6.722656 6.578125 -7.078125 C 6.078125 -7.429688 5.515625 -7.609375 4.890625 -7.609375 C 4.328125 -7.609375 3.8125 -7.460938 3.34375 -7.171875 C 2.875 -6.890625 2.503906 -6.5 2.234375 -6 C 1.960938 -5.5 1.828125 -4.945312 1.828125 -4.34375 C 1.828125 -3.726562 1.960938 -3.171875 2.234375 -2.671875 C 2.503906 -2.171875 2.875 -1.773438 3.34375 -1.484375 C 3.8125 -1.203125 4.328125 -1.0625 4.890625 -1.0625 C 5.515625 -1.0625 6.078125 -1.238281 6.578125 -1.59375 C 7.085938 -1.945312 7.460938 -2.445312 7.703125 -3.09375 L 9.078125 -3.09375 C 8.796875 -2.0625 8.269531 -1.257812 7.5 -0.6875 C 6.738281 -0.113281 5.867188 0.171875 4.890625 0.171875 Z M 4.890625 0.171875 "/></g></g></g><g fill="#000000" fill-opacity="1"><g transform="translate(176.483134, 303.026259)"><g><path d="M 4.890625 0.171875 C 4.085938 0.171875 3.34375 -0.0234375 2.65625 -0.421875 C 1.976562 -0.816406 1.4375 -1.359375 1.03125 -2.046875 C 0.632812 -2.734375 0.4375 -3.5 0.4375 -4.34375 C 0.4375 -5.175781 0.632812 -5.9375 1.03125 -6.625 C 1.4375 -7.320312 1.976562 -7.863281 2.65625 -8.25 C 3.34375 -8.644531 4.085938 -8.84375 4.890625 -8.84375 C 5.867188 -8.84375 6.738281 -8.554688 7.5 -7.984375 C 8.269531 -7.421875 8.796875 -6.617188 9.078125 -5.578125 L 7.703125 -5.578125 C 7.460938 -6.222656 7.085938 -6.722656 6.578125 -7.078125 C 6.078125 -7.429688 5.515625 -7.609375 4.890625 -7.609375 C 4.328125 -7.609375 3.8125 -7.460938 3.34375 -7.171875 C 2.875 -6.890625 2.503906 -6.5 2.234375 -6 C 1.960938 -5.5 1.828125 -4.945312 1.828125 -4.34375 C 1.828125 -3.726562 1.960938 -3.171875 2.234375 -2.671875 C 2.503906 -2.171875 2.875 -1.773438 3.34375 -1.484375 C 3.8125 -1.203125 4.328125 -1.0625 4.890625 -1.0625 C 5.515625 -1.0625 6.078125 -1.238281 6.578125 -1.59375 C 7.085938 -1.945312 7.460938 -2.445312 7.703125 -3.09375 L 9.078125 -3.09375 C 8.796875 -2.0625 8.269531 -1.257812 7.5 -0.6875 C 6.738281 -0.113281 5.867188 0.171875 4.890625 0.171875 Z M 4.890625 0.171875 "/></g></g></g><g fill="#000000" fill-opacity="1"><g transform="translate(185.917156, 303.026259)"><g><path d="M 4.796875 -8.84375 C 5.585938 -8.84375 6.3125 -8.660156 6.96875 -8.296875 C 7.625 -7.929688 8.132812 -7.429688 8.5 -6.796875 C 8.875 -6.171875 9.0625 -5.46875 9.0625 -4.6875 C 9.0625 -4.488281 9.054688 -4.34375 9.046875 -4.25 L 1.828125 -4.25 C 1.847656 -3.289062 2.125 -2.519531 2.65625 -1.9375 C 3.195312 -1.351562 3.910156 -1.0625 4.796875 -1.0625 C 5.472656 -1.0625 6.046875 -1.222656 6.515625 -1.546875 C 6.984375 -1.867188 7.335938 -2.359375 7.578125 -3.015625 L 8.953125 -3.015625 C 8.648438 -1.972656 8.140625 -1.179688 7.421875 -0.640625 C 6.703125 -0.0976562 5.828125 0.171875 4.796875 0.171875 C 3.984375 0.171875 3.242188 -0.0234375 2.578125 -0.421875 C 1.910156 -0.816406 1.382812 -1.351562 1 -2.03125 C 0.625 -2.71875 0.4375 -3.488281 0.4375 -4.34375 C 0.4375 -5.1875 0.625 -5.953125 1 -6.640625 C 1.382812 -7.328125 1.910156 -7.863281 2.578125 -8.25 C 3.242188 -8.644531 3.984375 -8.84375 4.796875 -8.84375 Z M 4.796875 -7.609375 C 3.929688 -7.609375 3.234375 -7.335938 2.703125 -6.796875 C 2.171875 -6.253906 1.878906 -5.523438 1.828125 -4.609375 L 7.734375 -4.609375 C 7.691406 -5.554688 7.398438 -6.289062 6.859375 -6.8125 C 6.316406 -7.34375 5.628906 -7.609375 4.796875 -7.609375 Z M 4.796875 -7.609375 "/></g></g></g><g fill="#000000" fill-opacity="1"><g transform="translate(195.421973, 303.026259)"><g><path d="M 4.03125 0.171875 C 3.019531 0.171875 2.203125 -0.0976562 1.578125 -0.640625 C 0.953125 -1.191406 0.613281 -1.953125 0.5625 -2.921875 L 1.890625 -2.921875 C 1.941406 -2.304688 2.148438 -1.84375 2.515625 -1.53125 C 2.878906 -1.21875 3.382812 -1.0625 4.03125 -1.0625 C 4.570312 -1.0625 5.019531 -1.171875 5.375 -1.390625 C 5.726562 -1.617188 5.90625 -1.941406 5.90625 -2.359375 C 5.90625 -2.671875 5.8125 -2.925781 5.625 -3.125 C 5.4375 -3.320312 5.203125 -3.46875 4.921875 -3.5625 C 4.648438 -3.65625 4.257812 -3.757812 3.75 -3.875 C 3.113281 -4.019531 2.609375 -4.164062 2.234375 -4.3125 C 1.859375 -4.457031 1.53125 -4.691406 1.25 -5.015625 C 0.976562 -5.347656 0.84375 -5.800781 0.84375 -6.375 C 0.84375 -6.84375 0.984375 -7.265625 1.265625 -7.640625 C 1.546875 -8.023438 1.921875 -8.320312 2.390625 -8.53125 C 2.859375 -8.738281 3.378906 -8.84375 3.953125 -8.84375 C 4.847656 -8.84375 5.59375 -8.570312 6.1875 -8.03125 C 6.789062 -7.5 7.125 -6.769531 7.1875 -5.84375 L 5.859375 -5.84375 C 5.796875 -6.4375 5.59375 -6.878906 5.25 -7.171875 C 4.90625 -7.460938 4.453125 -7.609375 3.890625 -7.609375 C 3.421875 -7.609375 3.023438 -7.5 2.703125 -7.28125 C 2.390625 -7.0625 2.234375 -6.757812 2.234375 -6.375 C 2.234375 -6.09375 2.320312 -5.863281 2.5 -5.6875 C 2.6875 -5.507812 2.910156 -5.375 3.171875 -5.28125 C 3.441406 -5.1875 3.816406 -5.078125 4.296875 -4.953125 C 4.929688 -4.816406 5.445312 -4.664062 5.84375 -4.5 C 6.238281 -4.34375 6.578125 -4.09375 6.859375 -3.75 C 7.148438 -3.40625 7.296875 -2.941406 7.296875 -2.359375 C 7.296875 -1.597656 6.984375 -0.984375 6.359375 -0.515625 C 5.734375 -0.0546875 4.957031 0.171875 4.03125 0.171875 Z M 4.03125 0.171875 "/></g></g></g><g fill="#000000" fill-opacity="1"><g transform="translate(203.369216, 303.026259)"><g><path d="M 4.03125 0.171875 C 3.019531 0.171875 2.203125 -0.0976562 1.578125 -0.640625 C 0.953125 -1.191406 0.613281 -1.953125 0.5625 -2.921875 L 1.890625 -2.921875 C 1.941406 -2.304688 2.148438 -1.84375 2.515625 -1.53125 C 2.878906 -1.21875 3.382812 -1.0625 4.03125 -1.0625 C 4.570312 -1.0625 5.019531 -1.171875 5.375 -1.390625 C 5.726562 -1.617188 5.90625 -1.941406 5.90625 -2.359375 C 5.90625 -2.671875 5.8125 -2.925781 5.625 -3.125 C 5.4375 -3.320312 5.203125 -3.46875 4.921875 -3.5625 C 4.648438 -3.65625 4.257812 -3.757812 3.75 -3.875 C 3.113281 -4.019531 2.609375 -4.164062 2.234375 -4.3125 C 1.859375 -4.457031 1.53125 -4.691406 1.25 -5.015625 C 0.976562 -5.347656 0.84375 -5.800781 0.84375 -6.375 C 0.84375 -6.84375 0.984375 -7.265625 1.265625 -7.640625 C 1.546875 -8.023438 1.921875 -8.320312 2.390625 -8.53125 C 2.859375 -8.738281 3.378906 -8.84375 3.953125 -8.84375 C 4.847656 -8.84375 5.59375 -8.570312 6.1875 -8.03125 C 6.789062 -7.5 7.125 -6.769531 7.1875 -5.84375 L 5.859375 -5.84375 C 5.796875 -6.4375 5.59375 -6.878906 5.25 -7.171875 C 4.90625 -7.460938 4.453125 -7.609375 3.890625 -7.609375 C 3.421875 -7.609375 3.023438 -7.5 2.703125 -7.28125 C 2.390625 -7.0625 2.234375 -6.757812 2.234375 -6.375 C 2.234375 -6.09375 2.320312 -5.863281 2.5 -5.6875 C 2.6875 -5.507812 2.910156 -5.375 3.171875 -5.28125 C 3.441406 -5.1875 3.816406 -5.078125 4.296875 -4.953125 C 4.929688 -4.816406 5.445312 -4.664062 5.84375 -4.5 C 6.238281 -4.34375 6.578125 -4.09375 6.859375 -3.75 C 7.148438 -3.40625 7.296875 -2.941406 7.296875 -2.359375 C 7.296875 -1.597656 6.984375 -0.984375 6.359375 -0.515625 C 5.734375 -0.0546875 4.957031 0.171875 4.03125 0.171875 Z M 4.03125 0.171875 "/></g></g></g><g fill="#000000" fill-opacity="1"><g transform="translate(211.31646, 303.026259)"><g><path d="M 4.96875 0.171875 C 4.144531 0.171875 3.390625 -0.0234375 2.703125 -0.421875 C 2.015625 -0.816406 1.460938 -1.359375 1.046875 -2.046875 C 0.640625 -2.734375 0.4375 -3.5 0.4375 -4.34375 C 0.4375 -5.175781 0.640625 -5.9375 1.046875 -6.625 C 1.460938 -7.320312 2.015625 -7.863281 2.703125 -8.25 C 3.390625 -8.644531 4.144531 -8.84375 4.96875 -8.84375 C 5.800781 -8.84375 6.5625 -8.644531 7.25 -8.25 C 7.9375 -7.863281 8.484375 -7.320312 8.890625 -6.625 C 9.296875 -5.9375 9.5 -5.175781 9.5 -4.34375 C 9.5 -3.5 9.296875 -2.734375 8.890625 -2.046875 C 8.484375 -1.359375 7.9375 -0.816406 7.25 -0.421875 C 6.5625 -0.0234375 5.800781 0.171875 4.96875 0.171875 Z M 4.96875 -1.0625 C 5.550781 -1.0625 6.082031 -1.203125 6.5625 -1.484375 C 7.039062 -1.773438 7.421875 -2.171875 7.703125 -2.671875 C 7.984375 -3.171875 8.125 -3.726562 8.125 -4.34375 C 8.125 -4.945312 7.984375 -5.5 7.703125 -6 C 7.421875 -6.5 7.039062 -6.890625 6.5625 -7.171875 C 6.082031 -7.460938 5.550781 -7.609375 4.96875 -7.609375 C 4.394531 -7.609375 3.867188 -7.460938 3.390625 -7.171875 C 2.910156 -6.890625 2.53125 -6.5 2.25 -6 C 1.96875 -5.5 1.828125 -4.945312 1.828125 -4.34375 C 1.828125 -3.726562 1.96875 -3.171875 2.25 -2.671875 C 2.53125 -2.171875 2.910156 -1.773438 3.390625 -1.484375 C 3.867188 -1.203125 4.394531 -1.0625 4.96875 -1.0625 Z M 4.96875 -1.0625 "/></g></g></g><g fill="#000000" fill-opacity="1"><g transform="translate(221.263782, 303.026259)"><g><path d="M 5.84375 -8.765625 L 5.84375 -7.53125 L 4.953125 -7.53125 C 4.484375 -7.53125 4.050781 -7.421875 3.65625 -7.203125 C 3.269531 -6.984375 2.960938 -6.675781 2.734375 -6.28125 C 2.503906 -5.894531 2.390625 -5.453125 2.390625 -4.953125 L 2.390625 0 L 1.0625 0 L 1.0625 -8.671875 L 2.390625 -8.671875 L 2.390625 -7.4375 C 2.742188 -7.875 3.148438 -8.203125 3.609375 -8.421875 C 4.078125 -8.648438 4.585938 -8.765625 5.140625 -8.765625 Z M 5.84375 -8.765625 "/></g></g></g><g fill="#000000" fill-opacity="1"><g transform="translate(227.016238, 303.026259)"><g><path d="M 2.390625 0 L 1.0625 0 L 1.0625 -8.671875 L 2.390625 -8.671875 Z M 2.484375 -10.53125 L 0.984375 -10.53125 L 0.984375 -11.0625 L 2.484375 -11.0625 Z M 2.484375 -10.53125 "/></g></g></g><g fill="#000000" fill-opacity="1"><g transform="translate(230.467715, 303.026259)"><g><path d="M 4.796875 -8.84375 C 5.585938 -8.84375 6.3125 -8.660156 6.96875 -8.296875 C 7.625 -7.929688 8.132812 -7.429688 8.5 -6.796875 C 8.875 -6.171875 9.0625 -5.46875 9.0625 -4.6875 C 9.0625 -4.488281 9.054688 -4.34375 9.046875 -4.25 L 1.828125 -4.25 C 1.847656 -3.289062 2.125 -2.519531 2.65625 -1.9375 C 3.195312 -1.351562 3.910156 -1.0625 4.796875 -1.0625 C 5.472656 -1.0625 6.046875 -1.222656 6.515625 -1.546875 C 6.984375 -1.867188 7.335938 -2.359375 7.578125 -3.015625 L 8.953125 -3.015625 C 8.648438 -1.972656 8.140625 -1.179688 7.421875 -0.640625 C 6.703125 -0.0976562 5.828125 0.171875 4.796875 0.171875 C 3.984375 0.171875 3.242188 -0.0234375 2.578125 -0.421875 C 1.910156 -0.816406 1.382812 -1.351562 1 -2.03125 C 0.625 -2.71875 0.4375 -3.488281 0.4375 -4.34375 C 0.4375 -5.1875 0.625 -5.953125 1 -6.640625 C 1.382812 -7.328125 1.910156 -7.863281 2.578125 -8.25 C 3.242188 -8.644531 3.984375 -8.84375 4.796875 -8.84375 Z M 4.796875 -7.609375 C 3.929688 -7.609375 3.234375 -7.335938 2.703125 -6.796875 C 2.171875 -6.253906 1.878906 -5.523438 1.828125 -4.609375 L 7.734375 -4.609375 C 7.691406 -5.554688 7.398438 -6.289062 6.859375 -6.8125 C 6.316406 -7.34375 5.628906 -7.609375 4.796875 -7.609375 Z M 4.796875 -7.609375 "/></g></g></g><g fill="#000000" fill-opacity="1"><g transform="translate(239.972532, 303.026259)"><g><path d="M 4.03125 0.171875 C 3.019531 0.171875 2.203125 -0.0976562 1.578125 -0.640625 C 0.953125 -1.191406 0.613281 -1.953125 0.5625 -2.921875 L 1.890625 -2.921875 C 1.941406 -2.304688 2.148438 -1.84375 2.515625 -1.53125 C 2.878906 -1.21875 3.382812 -1.0625 4.03125 -1.0625 C 4.570312 -1.0625 5.019531 -1.171875 5.375 -1.390625 C 5.726562 -1.617188 5.90625 -1.941406 5.90625 -2.359375 C 5.90625 -2.671875 5.8125 -2.925781 5.625 -3.125 C 5.4375 -3.320312 5.203125 -3.46875 4.921875 -3.5625 C 4.648438 -3.65625 4.257812 -3.757812 3.75 -3.875 C 3.113281 -4.019531 2.609375 -4.164062 2.234375 -4.3125 C 1.859375 -4.457031 1.53125 -4.691406 1.25 -5.015625 C 0.976562 -5.347656 0.84375 -5.800781 0.84375 -6.375 C 0.84375 -6.84375 0.984375 -7.265625 1.265625 -7.640625 C 1.546875 -8.023438 1.921875 -8.320312 2.390625 -8.53125 C 2.859375 -8.738281 3.378906 -8.84375 3.953125 -8.84375 C 4.847656 -8.84375 5.59375 -8.570312 6.1875 -8.03125 C 6.789062 -7.5 7.125 -6.769531 7.1875 -5.84375 L 5.859375 -5.84375 C 5.796875 -6.4375 5.59375 -6.878906 5.25 -7.171875 C 4.90625 -7.460938 4.453125 -7.609375 3.890625 -7.609375 C 3.421875 -7.609375 3.023438 -7.5 2.703125 -7.28125 C 2.390625 -7.0625 2.234375 -6.757812 2.234375 -6.375 C 2.234375 -6.09375 2.320312 -5.863281 2.5 -5.6875 C 2.6875 -5.507812 2.910156 -5.375 3.171875 -5.28125 C 3.441406 -5.1875 3.816406 -5.078125 4.296875 -4.953125 C 4.929688 -4.816406 5.445312 -4.664062 5.84375 -4.5 C 6.238281 -4.34375 6.578125 -4.09375 6.859375 -3.75 C 7.148438 -3.40625 7.296875 -2.941406 7.296875 -2.359375 C 7.296875 -1.597656 6.984375 -0.984375 6.359375 -0.515625 C 5.734375 -0.0546875 4.957031 0.171875 4.03125 0.171875 Z M 4.03125 0.171875 "/></g></g></g></svg>